<svg xmlns="http://www.w3.org/2000/svg"><style>:root svg:not(:target){display:none}</style><svg viewBox="0 0 29 28" fill="none" id="download"><rect x=".977" y=".477" width="27.046" height="27.046" rx="13.523" stroke="#fff" stroke-width=".955"></rect><path d="M14.44 17.88c.2.21.55.21.76 0l3.44-3.44a.54.54 0 1 0-.76-.76l-3.06 3.05-3.06-3.05a.54.54 0 0 0-.77.76l3.45 3.44Zm.92-10.56a.54.54 0 1 0-1.08 0h1.08Zm0 10.18v-10.18h-1.08v10.18h1.08Z" fill="#fff"></path><path d="M7.82 20.05c4.33.84 9.03.84 13.36 0" stroke="#fff" stroke-width="1.082" stroke-linecap="round" stroke-linejoin="round"></path></svg><svg viewBox="0 0 45 28" fill="none" id="ellipse"><g filter="url(#ellipse_0)"><path d="M35.13 14.05c0 2.58-5.6 4.68-12.5 4.68s-12.5-2.1-12.5-4.68c0-2.6 5.6-4.7 12.5-4.7s12.5 2.1 12.5 4.7Z" fill="#C23D9D"></path></g><defs><filter id="ellipse_0" x=".932" y=".158" width="43.401" height="27.775" filterUnits="userSpaceOnUse" color-interpolation-filters="sRGB"><feFlood flood-opacity="0" result="BackgroundImageFix"></feFlood><feBlend in="SourceGraphic" in2="BackgroundImageFix" result="shape"></feBlend><feGaussianBlur stdDeviation="4.6" result="effect1_foregroundBlur_266_1709"></feGaussianBlur></filter></defs></svg><svg viewBox="0 0 29 28" fill="none" id="telegram"><rect x=".977" y=".477" width="27.046" height="27.046" rx="13.523" stroke="#fff" stroke-width=".955"></rect><path d="m12.82 16.03 5.69 4.15c.59.38 1.1.17 1.26-.59l2.32-10.81c.21-.93-.38-1.34-1-1.05l-13.54 5.2c-.88.33-.88.88-.17 1.09l3.5 1.09 8-5.08c.39-.2.73-.12.47.17" fill="#fff"></path></svg></svg>