<svg viewBox="0 0 108 45" fill="none" xmlns="http://www.w3.org/2000/svg"><g clip-path="url(#a)"><path d="M101.31 20.8a3.65 3.65 0 0 1 3.4-2.3l3.65-.01v22.67a3.64 3.64 0 0 1-3.62 3.23h-3.66v-2.47a4.2 4.2 0 0 1-1.12 1.52c-.47.4-1 .72-1.6.95-.6.24-1.21.4-1.86.48a13.27 13.27 0 0 1-7.17-.96 14.23 14.23 0 0 1-4.38-2.94 13.51 13.51 0 0 1-4.01-9.65 13.15 13.15 0 0 1 4.01-9.59 14.04 14.04 0 0 1 4.38-2.89 13.6 13.6 0 0 1 5.34-1.06c1.19 0 2.38.22 3.59.66a5.9 5.9 0 0 1 2.82 2.01v.01l.23.35Zm-6.64 4.24a6.2 6.2 0 0 0-2.42.48 6.7 6.7 0 0 0-3.4 3.18 6.07 6.07 0 0 0-.54 2.7 6 6 0 0 0 .54 2.69 6.49 6.49 0 0 0 3.4 3.15 6.5 6.5 0 0 0 6.85-1.34 6.4 6.4 0 0 0 1.98-4.26v-.55a6.7 6.7 0 0 0-1.98-4.26 6.47 6.47 0 0 0-4.43-1.79Zm3.75-5.89a3.34 3.34 0 0 1 3.34 3.3c0 1.83-1.5 3.3-3.34 3.3a3.32 3.32 0 0 1-3.33-3.3c0-1.82 1.5-3.3 3.33-3.3Zm-27.67 12.15a6.63 6.63 0 0 0-.56-2.43 5.98 5.98 0 0 0-1.4-1.99c-.59-.55-1.28-1-2.06-1.33a6.24 6.24 0 0 0-4.9-.03 6.47 6.47 0 0 0-3.41 3.23c-.36.72-.55 1.5-.59 2.34v13.3h-7.27v-33.47a3.64 3.64 0 0 1 3.4-3.18h3.87v12.66a5.95 5.95 0 0 1 2.82-2.01c1.2-.44 2.4-.66 3.6-.66a13.89 13.89 0 0 1 9.71 3.96 13.38 13.38 0 0 1 4.02 9.6v13.1h-3.66a3.64 3.64 0 0 1-3.57-2.9v-10.2Zm-46.65 13.1v-7.21l12.66-11.54h-7.92a3.64 3.64 0 0 1-3.63-3.28v-3.93h21.02v7.2l-13.03 11.55h10.42a3.64 3.64 0 0 1 3.62 3.23v3.97h-23.14Z" fill="#fff"/><path d="M20.83 7.74v3.98a3.64 3.64 0 0 1-3.5 3.22h-9.93v3.5h9.8v7.2h-9.8v11.55h9.81a3.64 3.64 0 0 1 3.62 3.23v3.97h-20.7v-36.65h20.7Z" fill="#2C55FB"/><g clip-path="url(#b)" fill-rule="evenodd" clip-rule="evenodd" fill="#2C55FB"><path d="M13.12 0v5.47h-2.76a2.76 2.76 0 0 1-2.76-2.73v-2.74h5.52Zm7.6 5.47h-5.52v-2.73c0-1.5 1.24-2.74 2.76-2.74h2.76v5.47Zm-20.72 0v-5.47h2.76a2.76 2.76 0 0 1 2.76 2.74v2.73h-5.52Z"/></g></g><defs><clipPath id="a"><path fill="#fff" d="M0 0h108v45h-108z"/></clipPath><clipPath id="b"><path fill="#fff" transform="translate(0 -14)" d="M0 0h93.4v19.47h-93.4z"/></clipPath></defs></svg>